<svg xmlns="http://www.w3.org/2000/svg" viewBox="0 0 64 64" width="64" height="64">
<circle cx="32" cy="32" r="31" fill="#12100e" opacity="0.55"/>
<circle cx="32" cy="32" r="29.5" fill="none" stroke="#f7f5ef" stroke-width="2.5" opacity="0.9"/>
<circle cx="32" cy="32" r="27" fill="#1b67bc"/>
<g fill="none" stroke="#ffffff" stroke-width="3.5" stroke-linecap="round" stroke-linejoin="round">
<g transform="translate(32 32) scale(0.78) translate(-32 -32)">
<path d="M32 6c8 11 13 18 13 24a13 13 0 0 1-26 0c0-6 5-13 13-24z"/>
<path d="M8 50c5-4 8-4 12 0s7 4 12 0 8-4 12 0 7 4 12 0"/>
<path d="M8 58c5-4 8-4 12 0s7 4 12 0 8-4 12 0 7 4 12 0"/>
</g>
</g>
</svg>
